<svg xmlns="http://www.w3.org/2000/svg" viewBox="0 0 400 520" fill="none">
  <defs>
    <linearGradient id="bg" x1="0" y1="0" x2="400" y2="520" gradientUnits="userSpaceOnUse">
      <stop stop-color="#FAF7F3"/>
      <stop offset="1" stop-color="#D5CCC0"/>
    </linearGradient>
  </defs>
  <rect width="400" height="520" fill="url(#bg)"/>
  <ellipse cx="200" cy="430" rx="150" ry="28" fill="#2E2C28" fill-opacity="0.06"/>
  <path d="M105 175C118 100 172 68 200 68C230 68 285 102 295 180C302 235 278 340 200 368C122 340 98 235 105 175Z" fill="#F0E8DE"/>
  <path d="M130 220C150 180 250 180 270 220C282 260 250 300 200 308C150 300 118 260 130 220Z" fill="#A89B8C" fill-opacity="0.35"/>
  <path d="M145 190C160 165 240 165 255 190" stroke="#FFF" stroke-opacity="0.5" stroke-width="8" stroke-linecap="round"/>
</svg>
